<svg id="ee9poJ2xugk1" xmlns="http://www.w3.org/2000/svg" xmlns:xlink="http://www.w3.org/1999/xlink" viewBox="0 0 323 225" shape-rendering="geometricPrecision" text-rendering="geometricPrecision">
  <path d="M242.1875,0c.01456,0,.02911.00001.04366.00002h62.76884c9.94113,0,18,7.25943,18,16.21438v61.29598c0,8.95496-8.05887,16.21438-18,16.21438h-5v73.46273c0,31.92897-25.88353,57.8125-57.8125,57.8125h-184.375C25.88353,224.99999,0,199.11646,0,167.18749v-109.375c0-31.92897,25.88353-57.8125,57.8125-57.8125h86.71875v123.83744c0,1.72589,1.39911,3.125,3.125,3.125h4.6875c1.72589,0,3.125-1.39911,3.125-3.125v-123.83744L242.1875,0Z" fill="#fff" stroke-width="0" />
</svg>