<svg width="3149" height="2100" viewBox="0 0 3149 2100" fill="none" xmlns="http://www.w3.org/2000/svg">
  <rect x="295" y="297" width="2560" height="1440" fill="#FACC15" />
  <rect x="2423" y="1808.35" width="614.265" height="412.312" transform="rotate(-45 2423 1808.35)" fill="#1E1E1E" />
  <rect x="2321.07" y="379.34" width="150" height="320" transform="rotate(-135 2321.07 379.34)" fill="#1E1E1E" />
  <rect x="594" y="337" width="40" height="370" transform="rotate(-90 594 337)" fill="#FEF3C7" />
  <rect x="467" y="1528" width="40" height="842" transform="rotate(-90 467 1528)" fill="#FEF3C7" />
  <rect x="877" y="209.555" width="109.679" height="240.005" transform="rotate(-45 877 209.555)" fill="#1E1E1E" />
  <rect x="1231" y="1541.55" width="109.679" height="240.005" transform="rotate(-45 1231 1541.55)" fill="#1E1E1E" />
  <rect x="1047" y="123" width="1274" height="256" fill="#1E1E1E" />
  <rect x="220" y="1673" width="1274" height="256" transform="rotate(-90 220 1673)" fill="#1E1E1E" />
  <line x1="486" y1="1656" x2="486" y2="416" stroke="#FEF3C7" stroke-width="20" />
  <line x1="601.071" y1="304.071" x2="482.984" y2="422.158" stroke="#FEF3C7" stroke-width="20" />
  <rect x="220" y="1528" width="2608" height="256" fill="#1E1E1E" />
  <rect x="1309" y="1464" width="1477" height="64" fill="#1E1E1E" />
  <rect y="296.985" width="420" height="420" transform="rotate(-45 0 296.985)" fill="#1E1E1E" />
  <line x1="1331" y1="1503" x2="2810" y2="1503" stroke="#FEF3C7" stroke-width="10" />
  <line x1="1331" y1="1503" x2="2810" y2="1503" stroke="#FEF3C7" stroke-width="10" />
  <line x1="1316" y1="1469" x2="2775.01" y2="1469" stroke="#FEF3C7" stroke-width="10" />
  <line x1="2771.46" y1="1468.82" x2="2861.82" y2="1378.46" stroke="#FEF3C7" stroke-width="10" />
  <line x1="2860" y1="1382" x2="2860" y2="297" stroke="#FEF3C7" stroke-width="10" />
  <rect x="2813.43" y="1522.13" width="26.0626" height="142.414" transform="rotate(-135 2813.43 1522.13)" fill="#FEF3C7" />
  <rect x="2675" y="1553.42" width="45.4211" height="240.005" transform="rotate(-90 2675 1553.42)" fill="#1E1E1E" />
  <rect x="2770.27" y="1481.31" width="3.18058" height="32.6072" transform="rotate(-135 2770.27 1481.31)" fill="#1E1E1E" />
  <rect x="2865" y="1362" width="3.18058" height="32.6072" fill="#1E1E1E" />
</svg>